<svg width="108" height="74" viewBox="0 0 108 74" fill="none" xmlns="http://www.w3.org/2000/svg">
<path opacity="0.4" d="M2.83122e-07 37C2.83122e-07 29.2 1.26667 22.6 3.8 17.2C6.33333 11.7333 9.83333 7.59999 14.3 4.79999C18.8333 2 24.0667 0.599995 30 0.599995C39.3333 0.599995 46.6667 3.73333 52 10C57.4 16.2667 60.1 25.2667 60.1 37C60.1 48.6667 57.4 57.6667 52 64C46.6667 70.2667 39.3333 73.4 30 73.4C24.0667 73.4 18.8333 72 14.3 69.2C9.83333 66.3333 6.33333 62.2 3.8 56.8C1.26667 51.4 2.83122e-07 44.8 2.83122e-07 37ZM18.6 37C18.6 43.0667 19.6333 47.9 21.7 51.5C23.8333 55.1 26.6 56.9 30 56.9C33.4 56.9 36.1333 55.1 38.2 51.5C40.3333 47.9 41.4 43.0667 41.4 37C41.4 30.8667 40.3333 26.0333 38.2 22.5C36.1333 18.9 33.4 17.1 30 17.1C26.6 17.1 23.8333 18.9 21.7 22.5C19.6333 26.0333 18.6 30.8667 18.6 37ZM70.4664 24.2V7.59999L107.066 0.599995V72H88.3664V20L70.4664 24.2Z" fill="url(#paint0_radial_172_1361)"/>
<defs>
<radialGradient id="paint0_radial_172_1361" cx="0" cy="0" r="1" gradientUnits="userSpaceOnUse" gradientTransform="translate(90.9381 8.71131) rotate(108.778) scale(106.983 85.0607)">
<stop stop-color="#376DBE"/>
<stop offset="1" stop-color="#76D7F6"/>
</radialGradient>
</defs>
</svg>
