<svg width="129" height="74" viewBox="0 0 129 74" fill="none" xmlns="http://www.w3.org/2000/svg">
<path opacity="0.4" d="M2.83122e-07 37C2.83122e-07 29.2 1.26667 22.6 3.8 17.2C6.33333 11.7333 9.83333 7.59999 14.3 4.79999C18.8333 2 24.0667 0.599995 30 0.599995C39.3333 0.599995 46.6667 3.73333 52 10C57.4 16.2667 60.1 25.2667 60.1 37C60.1 48.6667 57.4 57.6667 52 64C46.6667 70.2667 39.3333 73.4 30 73.4C24.0667 73.4 18.8333 72 14.3 69.2C9.83333 66.3333 6.33333 62.2 3.8 56.8C1.26667 51.4 2.83122e-07 44.8 2.83122e-07 37ZM18.6 37C18.6 43.0667 19.6333 47.9 21.7 51.5C23.8333 55.1 26.6 56.9 30 56.9C33.4 56.9 36.1333 55.1 38.2 51.5C40.3333 47.9 41.4 43.0667 41.4 37C41.4 30.8667 40.3333 26.0333 38.2 22.5C36.1333 18.9 33.4 17.1 30 17.1C26.6 17.1 23.8333 18.9 21.7 22.5C19.6333 26.0333 18.6 30.8667 18.6 37ZM66.0664 72L96.6664 40.6C99.5997 37.4 101.933 34.6667 103.666 32.4C105.4 30.0667 106.266 27.5333 106.266 24.8C106.266 22.8 105.6 21 104.266 19.4C102.933 17.8 100.8 17 97.8664 17C94.9997 17 92.6664 18.0667 90.8664 20.2C89.1331 22.3333 88.2664 25.0667 88.2664 28.4H69.2664C69.2664 23.4 70.3331 18.8 72.4664 14.6C74.6664 10.3333 77.9331 6.93333 82.2664 4.39999C86.5997 1.8 91.9997 0.499997 98.4664 0.499997C104.466 0.499997 109.533 1.63333 113.666 3.89999C117.8 6.16666 120.933 9.06666 123.066 12.6C125.266 16.0667 126.366 19.6667 126.366 23.4C126.366 27.2 125.433 30.6333 123.566 33.7C121.7 36.7667 119.2 39.5667 116.066 42.1L101.666 54.2H128.466V72H66.0664Z" fill="url(#paint0_radial_172_1362)"/>
<defs>
<radialGradient id="paint0_radial_172_1362" cx="0" cy="0" r="1" gradientUnits="userSpaceOnUse" gradientTransform="translate(103.492 8.71131) rotate(111.055) scale(108.535 94.9316)">
<stop stop-color="#376DBE"/>
<stop offset="1" stop-color="#76D7F6"/>
</radialGradient>
</defs>
</svg>
