<svg width="126" height="74" viewBox="0 0 126 74" fill="none" xmlns="http://www.w3.org/2000/svg">
<path opacity="0.4" d="M2.83122e-07 37C2.83122e-07 29.2 1.26667 22.6 3.8 17.2C6.33333 11.7333 9.83333 7.59999 14.3 4.79999C18.8333 2 24.0667 0.599995 30 0.599995C39.3333 0.599995 46.6667 3.73333 52 10C57.4 16.2667 60.1 25.2667 60.1 37C60.1 48.6667 57.4 57.6667 52 64C46.6667 70.2667 39.3333 73.4 30 73.4C24.0667 73.4 18.8333 72 14.3 69.2C9.83333 66.3333 6.33333 62.2 3.8 56.8C1.26667 51.4 2.83122e-07 44.8 2.83122e-07 37ZM18.6 37C18.6 43.0667 19.6333 47.9 21.7 51.5C23.8333 55.1 26.6 56.9 30 56.9C33.4 56.9 36.1333 55.1 38.2 51.5C40.3333 47.9 41.4 43.0667 41.4 37C41.4 30.8667 40.3333 26.0333 38.2 22.5C36.1333 18.9 33.4 17.1 30 17.1C26.6 17.1 23.8333 18.9 21.7 22.5C19.6333 26.0333 18.6 30.8667 18.6 37ZM96.8664 73.8C90.8664 73.8 85.7331 72.6 81.4664 70.2C77.2664 67.8 74.0331 64.7 71.7664 60.9C69.5664 57.0333 68.4664 52.9333 68.4664 48.6H87.6664C87.6664 52.0667 88.6664 54.6 90.6664 56.2C92.7331 57.7333 95.0664 58.5 97.6664 58.5C100.266 58.5 102.433 57.9333 104.166 56.8C105.9 55.6 106.766 53.6 106.766 50.8C106.766 48.2667 105.666 46.1667 103.466 44.5C101.333 42.8333 97.5997 42 92.2664 42V30C95.9997 30 98.9997 29.1667 101.266 27.5C103.6 25.8333 104.766 23.8667 104.766 21.6C104.766 19.8667 104.166 18.4667 102.966 17.4C101.833 16.3333 100.066 15.8 97.6664 15.8C95.2664 15.8 93.2664 16.5333 91.6664 18C90.0664 19.4 89.2664 21.2 89.2664 23.4H71.4664C71.4664 19.0667 72.5331 15.2 74.6664 11.8C76.7997 8.33333 79.8331 5.6 83.7664 3.6C87.6997 1.6 92.3331 0.599995 97.6664 0.599995C103.333 0.599995 108.1 1.46666 111.966 3.2C115.9 4.93333 118.866 7.26666 120.866 10.2C122.933 13.1333 123.966 16.4667 123.966 20.2C123.966 23.8667 122.9 26.9333 120.766 29.4C118.633 31.8667 115.766 33.8 112.166 35.2C116.5 36.7333 119.866 38.9333 122.266 41.8C124.733 44.6667 125.966 48.3 125.966 52.7C125.966 56.7667 124.833 60.4 122.566 63.6C120.3 66.8 117 69.3 112.666 71.1C108.333 72.9 103.066 73.8 96.8664 73.8Z" fill="url(#paint0_radial_172_1363)"/>
<defs>
<radialGradient id="paint0_radial_172_1363" cx="0" cy="0" r="1" gradientUnits="userSpaceOnUse" gradientTransform="translate(100.353 8.71131) rotate(110.492) scale(108.131 92.504)">
<stop stop-color="#376DBE"/>
<stop offset="1" stop-color="#76D7F6"/>
</radialGradient>
</defs>
</svg>
