<svg width="26" height="36" viewBox="0 0 26 36" fill="none" xmlns="http://www.w3.org/2000/svg">
<path d="M12.9945 1.09417e-09C9.55856 0.00287555 6.26337 1.36803 3.82864 3.79729C1.39391 6.22656 0.0174845 9.52252 0 12.9653C0 18.1271 2.89011 22.4489 5.00806 25.599L5.39414 26.1738C7.50137 29.234 9.76194 32.1853 12.1672 35.0163L13.0055 36L13.8439 35.0163C16.2488 32.185 18.5093 29.2337 20.6169 26.1738L21.003 25.588C23.1099 22.4378 26 18.1271 26 12.9653C25.9825 9.52061 24.6046 6.22298 22.1674 3.7934C19.7303 1.36382 16.4323 -4.4606e-05 12.9945 1.09417e-09ZM19.1608 24.3169L18.7637 24.9027C16.8664 27.7544 14.3513 30.9487 12.9945 32.5293C11.6928 30.9487 9.12261 27.7544 7.22529 24.9027L6.8392 24.3169C4.88672 21.3988 2.20619 17.4087 2.20619 12.9211C2.20619 11.5015 2.48524 10.0958 3.0274 8.78431C3.56957 7.47278 4.36423 6.2811 5.36601 5.27731C6.3678 4.27351 7.55709 3.47725 8.86598 2.934C10.1749 2.39075 11.5777 2.11115 12.9945 2.11115C14.4112 2.11115 15.8141 2.39075 17.123 2.934C18.4319 3.47725 19.6212 4.27351 20.623 5.27731C21.6247 6.2811 22.4194 7.47278 22.9616 8.78431C23.5037 10.0958 23.7828 11.5015 23.7828 12.9211C23.7828 17.4529 21.1133 21.443 19.1608 24.3169Z" fill="#018DE0"/>
<path d="M13 7C11.8133 7 10.6533 7.38122 9.66658 8.09545C8.67989 8.80968 7.91085 9.82484 7.45673 11.0126C7.0026 12.2003 6.88378 13.5072 7.11529 14.7681C7.3468 16.029 7.91825 17.1872 8.75736 18.0962C9.59648 19.0052 10.6656 19.6243 11.8295 19.8751C12.9933 20.1259 14.1997 19.9972 15.2961 19.5052C16.3925 19.0132 17.3295 18.1801 17.9888 17.1112C18.6481 16.0423 19 14.7856 19 13.5C19 11.7761 18.3679 10.1228 17.2426 8.90381C16.1174 7.68482 14.5913 7 13 7ZM13 17.7312C12.2275 17.7312 11.4724 17.4831 10.8301 17.0181C10.1878 16.5532 9.68717 15.8924 9.39155 15.1192C9.09593 14.3461 9.01859 13.4953 9.16929 12.6745C9.32 11.8537 9.69198 11.0998 10.2382 10.5081C10.7844 9.91631 11.4804 9.51333 12.238 9.35006C12.9957 9.1868 13.781 9.27059 14.4947 9.59084C15.2084 9.9111 15.8183 10.4534 16.2475 11.1492C16.6767 11.8451 16.9058 12.6631 16.9058 13.5C16.903 14.6202 16.4903 15.6935 15.7581 16.4846C15.0259 17.2757 14.0341 17.7199 13 17.7199V17.7312Z" fill="#018DE0"/>
</svg>
