<svg width="34" height="28" viewBox="0 0 34 28" fill="none" xmlns="http://www.w3.org/2000/svg">
<path d="M5.74967 0.667969H28.2497C29.6332 0.667878 30.9644 1.19723 31.9701 2.14742C32.9757 3.09762 33.5797 4.39662 33.658 5.77797L33.6663 6.08463V21.918C33.6664 23.3015 33.1371 24.6327 32.1869 25.6384C31.2367 26.644 29.9377 27.248 28.5563 27.3263L28.2497 27.3346H5.74967C4.36611 27.3347 3.03496 26.8054 2.02929 25.8552C1.02362 24.905 0.419672 23.606 0.341341 22.2246L0.333008 21.918V6.08463C0.332917 4.70107 0.862265 3.36992 1.81246 2.36425C2.76266 1.35858 4.06166 0.754633 5.44301 0.676302L5.74967 0.667969H28.2497H5.74967ZM31.1663 9.62297L17.583 16.773C17.4296 16.854 17.2611 16.9022 17.088 16.9145C16.915 16.9269 16.7413 16.9031 16.578 16.8446L16.418 16.7746L2.83301 9.62463V21.918C2.83304 22.65 3.10829 23.3552 3.60414 23.8936C4.09999 24.4321 4.78017 24.7644 5.50967 24.8246L5.74967 24.8346H28.2497C28.9819 24.8346 29.6874 24.5591 30.2259 24.0629C30.7644 23.5667 31.0965 22.8861 31.1563 22.1563L31.1663 21.918V9.62297ZM28.2497 3.16797H5.74967C5.01769 3.168 4.31248 3.44325 3.77402 3.9391C3.23557 4.43495 2.90324 5.11513 2.84301 5.84464L2.83301 6.08463V6.79963L16.9997 14.2546L31.1663 6.79797V6.08463C31.1663 5.35239 30.8908 4.64695 30.3946 4.10845C29.8984 3.56996 29.2178 3.2378 28.488 3.17797L28.2497 3.16797Z" fill="#018DE0"/>
</svg>
