<svg width="14" height="14" viewBox="0 0 14 14" fill="none" xmlns="http://www.w3.org/2000/svg">
<path d="M13.417 9.43323L13.8766 9.63002C13.9586 9.43847 13.9133 9.21614 13.7628 9.07205C13.6122 8.92796 13.3882 8.89232 13.2004 8.98259L13.417 9.43323ZM5.84095 0.558594L6.23867 0.861603C6.36529 0.69541 6.37522 0.468012 6.26357 0.291414C6.15193 0.114815 5.94225 0.0262515 5.73781 0.0693454L5.84095 0.558594ZM10.73 9.54166C7.63209 9.54166 5.14166 7.09395 5.14166 4.1001L4.14166 4.1001C4.14166 7.66911 7.10295 10.5417 10.73 10.5417L10.73 9.54166ZM13.2004 8.98259C12.4564 9.34024 11.6182 9.54166 10.73 9.54166L10.73 10.5417C11.7708 10.5417 12.7568 10.3054 13.6336 9.88386L13.2004 8.98259ZM12.9573 9.23644C12.0288 11.4053 9.82962 12.937 7.25662 12.937L7.25662 13.937C10.2328 13.937 12.7918 12.164 13.8766 9.63002L12.9573 9.23644ZM7.25662 12.937C3.83548 12.937 1.08307 10.2336 1.08307 6.92438L0.0830695 6.92438C0.0830693 10.8088 3.30635 13.937 7.25662 13.937L7.25662 12.937ZM1.08307 6.92438C1.08307 4.05096 3.15677 1.63539 5.94408 1.04784L5.73781 0.0693454C2.51372 0.748964 0.0830697 3.55226 0.0830695 6.92438L1.08307 6.92438ZM5.14166 4.1001C5.14166 2.88723 5.54863 1.76734 6.23867 0.861603L5.44322 0.255585C4.62634 1.32781 4.14166 2.65882 4.14166 4.1001L5.14166 4.1001Z" fill="#018DE0"/>
</svg>
