<svg width="54" height="46" viewBox="0 0 54 46" fill="none" xmlns="http://www.w3.org/2000/svg">
<path d="M27.0003 0.511719C26.0164 0.511719 25.0421 0.705518 24.1331 1.08205C23.224 1.45858 22.3981 2.01048 21.7023 2.70622C21.0066 3.40196 20.4547 4.22793 20.0781 5.13696C19.7016 6.04599 19.5078 7.02029 19.5078 8.00422C19.5078 8.98815 19.7016 9.96244 20.0781 10.8715C20.4547 11.7805 21.0066 12.6065 21.7023 13.3022C22.3981 13.998 23.224 14.5499 24.1331 14.9264C25.0421 15.3029 26.0164 15.4967 27.0003 15.4967C28.9874 15.4967 30.8932 14.7073 32.2983 13.3022C33.7034 11.8971 34.4928 9.99135 34.4928 8.00422C34.4928 6.01708 33.7034 4.11134 32.2983 2.70622C30.8932 1.3011 28.9874 0.511719 27.0003 0.511719Z" fill="#018DE0"/>
<path d="M43.875 4.25C42.3832 4.25 40.9524 4.84263 39.8975 5.89752C38.8426 6.95242 38.25 8.38316 38.25 9.875C38.25 11.3668 38.8426 12.7976 39.8975 13.8525C40.9524 14.9074 42.3832 15.5 43.875 15.5C45.3668 15.5 46.7976 14.9074 47.8525 13.8525C48.9074 12.7976 49.5 11.3668 49.5 9.875C49.5 8.38316 48.9074 6.95242 47.8525 5.89752C46.7976 4.84263 45.3668 4.25 43.875 4.25Z" fill="#018DE0"/>
<path d="M10.125 4.25C8.63316 4.25 7.20242 4.84263 6.14752 5.89752C5.09263 6.95242 4.5 8.38316 4.5 9.875C4.5 11.3668 5.09263 12.7976 6.14752 13.8525C7.20242 14.9074 8.63316 15.5 10.125 15.5C11.6168 15.5 13.0476 14.9074 14.1025 13.8525C15.1574 12.7976 15.75 11.3668 15.75 9.875C15.75 8.38316 15.1574 6.95242 14.1025 5.89752C13.0476 4.84263 11.6168 4.25 10.125 4.25Z" fill="#018DE0"/>
<path d="M15.75 22.9738C15.7569 21.9837 16.1551 21.0366 16.8576 20.3391C17.5601 19.6415 18.51 19.25 19.5 19.25H34.5C35.4946 19.25 36.4484 19.6451 37.1516 20.3484C37.8549 21.0516 38.25 22.0054 38.25 23V34.25C38.2497 35.4302 38.065 36.6031 37.7025 37.7263C36.8721 40.2714 35.1617 42.4371 32.8782 43.8346C30.5947 45.2321 27.8878 45.7697 25.2436 45.351C22.5994 44.9323 20.1911 43.5846 18.4511 41.55C16.7111 39.5154 15.7534 36.9272 15.75 34.25V23V22.9738Z" fill="#018DE0"/>
<path d="M12 23C12 21.6312 12.3638 20.3525 13.005 19.25H4.5C3.50544 19.25 2.55161 19.6451 1.84835 20.3484C1.14509 21.0516 0.750001 22.0054 0.750001 23V32.375C0.74949 33.9099 1.12585 35.4214 1.84602 36.7769C2.5662 38.1323 3.60816 39.2902 4.88041 40.1489C6.15265 41.0075 7.61627 41.5407 9.14271 41.7015C10.6692 41.8623 12.2117 41.6459 13.635 41.0712C12.5557 38.9584 11.9952 36.6188 12 34.2462V23Z" fill="#018DE0"/>
<path d="M42.0012 23V34.25C42.0012 36.7062 41.4125 39.0238 40.3662 41.0712C41.7895 41.6459 43.3321 41.8623 44.8585 41.7015C46.3849 41.5407 47.8486 41.0075 49.1208 40.1489C50.393 39.2902 51.435 38.1323 52.1552 36.7769C52.8754 35.4214 53.2517 33.9099 53.2512 32.375V23C53.2512 22.0054 52.8561 21.0516 52.1529 20.3484C51.4496 19.6451 50.4958 19.25 49.5012 19.25H40.9962C41.6337 20.3525 42.0012 21.6312 42.0012 23Z" fill="#018DE0"/>
</svg>
