<svg width="65" height="61" viewBox="0 0 65 61" fill="none" xmlns="http://www.w3.org/2000/svg">
<path d="M63.2153 3.83646V26.4861H2V3.83646C2 3.3494 2.19348 2.88229 2.53789 2.53789C2.88229 2.19348 3.3494 2 3.83646 2H61.3788C61.8659 2 62.333 2.19348 62.6774 2.53789C63.0218 2.88229 63.2153 3.3494 63.2153 3.83646V3.83646Z" stroke="#018DE0" stroke-width="3" stroke-linecap="round" stroke-linejoin="round"/>
<path d="M50.9707 14.2422H54.0315" stroke="#018DE0" stroke-width="3" stroke-linecap="round" stroke-linejoin="round"/>
<path d="M2 26.4844L4.418 34.3934C4.80081 35.6472 5.57602 36.745 6.62954 37.5253C7.68305 38.3055 8.95922 38.7269 10.2702 38.7274H14.2431" stroke="#018DE0" stroke-width="3" stroke-linecap="round" stroke-linejoin="round"/>
<path d="M63.2138 26.4844L60.7958 34.3934C60.413 35.6472 59.6377 36.745 58.5842 37.5253C57.5307 38.3055 56.2545 38.7269 54.9436 38.7274H50.9707" stroke="#018DE0" stroke-width="3" stroke-linecap="round" stroke-linejoin="round"/>
<path d="M24.9549 37.1992C24.9549 37.1992 24.9549 58.6246 14.2422 58.6246" stroke="#018DE0" stroke-width="3" stroke-linecap="round" stroke-linejoin="round"/>
<path d="M40.2607 37.1992C40.2607 37.1992 40.2607 58.6246 50.9734 58.6246" stroke="#018DE0" stroke-width="3" stroke-linecap="round" stroke-linejoin="round"/>
<path d="M32.6064 37.1992V58.6246" stroke="#018DE0" stroke-width="3" stroke-linecap="round" stroke-linejoin="round"/>
</svg>
