<svg width="49" height="62" viewBox="0 0 49 62" fill="none" xmlns="http://www.w3.org/2000/svg">
<path d="M24.3333 0C8.12125 14.0292 0 26.1467 0 36.3833C0 51.7383 11.5583 61.6667 24.3333 61.6667C37.1083 61.6667 48.6667 51.7383 48.6667 36.3833C48.6667 26.1467 40.5454 14.0292 24.3333 0ZM24.3333 55.5C14.1437 55.5 6.08333 47.5758 6.08333 36.3833C6.08333 29.1683 12.0146 19.61 24.3333 8.20167C36.6521 19.61 42.5833 29.1375 42.5833 36.3833C42.5833 47.5758 34.5229 55.5 24.3333 55.5ZM11.6496 37C12.775 37 13.6875 37.8017 13.9004 38.9117C15.1475 45.7567 20.8354 48.1 24.9721 47.7608C26.28 47.6992 27.375 48.7475 27.375 50.0733C27.375 51.3067 26.4017 52.3242 25.185 52.3858C18.7062 52.7867 11.1325 49.025 9.39875 39.6825C9.34589 39.3519 9.36449 39.0136 9.45327 38.6911C9.54205 38.3685 9.69888 38.0693 9.91293 37.8142C10.127 37.5591 10.3931 37.3542 10.693 37.2136C10.9928 37.073 11.3192 37.0001 11.6496 37Z" fill="#018DE0"/>
</svg>
