<svg width="73" height="61" viewBox="0 0 73 61" fill="none" xmlns="http://www.w3.org/2000/svg">
<path d="M26.6747 40.6667C17.772 40.6667 0 45.2078 0 54.2222V61H53.3494V54.2222C53.3494 45.2078 35.5774 40.6667 26.6747 40.6667ZM70.3545 13.0133C70.3879 12.6406 70.4212 12.2678 70.4212 11.8611C70.4212 11.4544 70.3879 11.0817 70.3212 10.7089L72.7886 8.74334C73.022 8.57389 73.0554 8.23501 72.922 7.99778L70.588 3.89723C70.4546 3.62612 70.1211 3.55834 69.8877 3.62612L67.0202 4.81223C66.42 4.33778 65.7532 3.96501 65.0529 3.66001L64.6195 0.50834C64.5944 0.365344 64.5204 0.235948 64.4106 0.142956C64.3008 0.049963 64.1622 -0.000659884 64.0193 6.49595e-06H59.3512C59.0511 6.49595e-06 58.8177 0.20334 58.7844 0.50834L58.3509 3.66001C57.6507 3.96501 56.9838 4.37167 56.3837 4.81223L53.4828 3.62612C53.216 3.52445 52.916 3.62612 52.7826 3.89723L50.4485 7.99778C50.3152 8.2689 50.3485 8.57389 50.5819 8.74334L53.0493 10.7089C52.9167 11.4711 52.9167 12.2511 53.0493 13.0133L50.5819 14.9789C50.3485 15.1483 50.3152 15.4872 50.4485 15.7244L52.7826 19.825C52.916 20.0961 53.2494 20.1639 53.4828 20.0961L56.3837 18.91C56.9838 19.3844 57.6507 19.7572 58.3509 20.0622L58.7844 23.2139C58.8177 23.5189 59.0511 23.7222 59.3512 23.7222H64.0193C64.3194 23.7222 64.5528 23.5189 64.5861 23.2139L65.0196 20.0622C65.7198 19.7572 66.3867 19.3506 66.9869 18.91L69.8877 20.0961C70.1545 20.1978 70.4546 20.0961 70.588 19.825L72.922 15.7244C73.0554 15.4533 73.022 15.1483 72.7886 14.9789L70.3545 13.0133ZM61.6853 16.0972C60.5799 16.0972 59.5197 15.6509 58.7381 14.8565C57.9565 14.0621 57.5173 12.9846 57.5173 11.8611C57.5173 10.7376 57.9565 9.66016 58.7381 8.86573C59.5197 8.07131 60.5799 7.62501 61.6853 7.62501C62.7907 7.62501 63.8508 8.07131 64.6324 8.86573C65.4141 9.66016 65.8532 10.7376 65.8532 11.8611C65.8532 12.9846 65.4141 14.0621 64.6324 14.8565C63.8508 15.6509 62.7907 16.0972 61.6853 16.0972ZM63.0857 29.4156L61.4185 26.4672C61.3185 26.2639 61.0851 26.1961 60.9184 26.2639L58.8511 27.1111C58.4176 26.7722 57.9508 26.5011 57.4507 26.2978L57.1506 24.0611C57.1164 23.9628 57.0532 23.8775 56.9697 23.8169C56.8862 23.7563 56.7864 23.7232 56.6838 23.7222H53.3494C53.1494 23.7222 52.9826 23.8578 52.9493 24.095L52.6492 26.3317C52.1491 26.535 51.6823 26.84 51.2488 27.145L49.1815 26.2978C48.9814 26.23 48.7814 26.2978 48.6813 26.5011L47.0142 29.4494C46.9141 29.6528 46.9475 29.8561 47.1142 29.9917L48.8814 31.3811C48.8481 31.6522 48.8147 31.9233 48.8147 32.1944C48.8147 32.4656 48.8481 32.7706 48.8814 33.0078L47.1142 34.3972C46.9475 34.5328 46.9141 34.77 47.0142 34.9394L48.6813 37.8878C48.7814 38.0911 49.0148 38.1589 49.1815 38.0911L51.2488 37.2439C51.6823 37.5828 52.1491 37.8539 52.6492 38.0572L52.9493 40.2939C52.9826 40.5311 53.1494 40.6667 53.3494 40.6667H56.6838C56.8838 40.6667 57.0839 40.5311 57.0839 40.2939L57.384 38.0572C57.8841 37.8539 58.3509 37.5489 58.7844 37.2439L60.8517 38.0911C61.0517 38.1589 61.2518 38.0911 61.3518 37.8878L63.019 34.9394C63.119 34.7361 63.0857 34.5328 62.919 34.3972L61.1851 33.0078C61.2185 32.7367 61.2518 32.4656 61.2518 32.1944C61.2518 31.9233 61.2185 31.6183 61.1851 31.3811L62.9523 29.9917C63.119 29.8561 63.1524 29.6189 63.0857 29.4156ZM55.0166 35.0072C53.4828 35.0072 52.2491 33.7194 52.2491 32.1944C52.2491 30.6356 53.5161 29.3817 55.0166 29.3817C56.517 29.3817 57.7841 30.6694 57.7841 32.1944C57.7841 33.7533 56.5504 35.0072 55.0166 35.0072ZM12.4704 20.3333H40.9123C41.8126 20.3333 42.5462 19.5878 42.5462 18.6728V18.605C42.5462 18.1646 42.374 17.7422 42.0676 17.4308C41.7612 17.1194 41.3457 16.9445 40.9123 16.9445H40.0121C40.0121 11.9289 37.3112 7.62501 33.3434 5.25278V8.47223C33.3434 9.42112 32.6098 10.1667 31.6762 10.1667C30.7426 10.1667 30.009 9.42112 30.009 8.47223V3.86334C28.9421 3.59223 27.8417 3.3889 26.6747 3.3889C25.5077 3.3889 24.4074 3.59223 23.3404 3.86334V8.47223C23.3404 9.42112 22.6068 10.1667 21.6732 10.1667C20.7396 10.1667 20.006 9.42112 20.006 8.47223V5.25278C16.0382 7.62501 13.3374 11.9289 13.3374 16.9445H12.4704C12.2559 16.9445 12.0434 16.9874 11.8452 17.0709C11.647 17.1543 11.4669 17.2766 11.3151 17.4308C11.1634 17.585 11.0431 17.7681 10.961 17.9695C10.8789 18.171 10.8366 18.3869 10.8366 18.605V18.7067C10.8366 19.5878 11.5702 20.3333 12.4704 20.3333ZM26.6747 33.8889C32.8766 33.8889 38.0448 29.5511 39.5453 23.7222H13.8042C15.3046 29.5511 20.4728 33.8889 26.6747 33.8889Z" fill="#018DE0"/>
</svg>
