<svg width="67" height="54" viewBox="0 0 67 54" fill="none" xmlns="http://www.w3.org/2000/svg">
<path d="M6.11839 13.7087C12.6209 8.23581 17.7575 3.90859 31.6968 11.629C38.393 15.336 43.7938 16.737 48.2864 16.7297C56.1587 16.7297 61.2617 12.439 65.6724 8.72836C66.4295 8.08277 66.9003 7.17354 66.9851 6.19343C67.0698 5.21332 66.7619 4.23937 66.1265 3.47805C65.8166 3.10447 65.4334 2.79561 64.9995 2.56974C64.5657 2.34387 64.09 2.20559 63.6007 2.16307C63.1114 2.12055 62.6184 2.17465 62.1508 2.32218C61.6832 2.46971 61.2505 2.70767 60.8783 3.02198C54.3795 8.50215 49.2392 12.8294 35.2999 5.10167C16.8828 -5.08882 8.25489 2.17186 1.32429 8.00959C0.567774 8.6557 0.0976561 9.56518 0.0135825 10.5453C-0.070491 11.5254 0.238088 12.499 0.873915 13.2599C1.18405 13.6329 1.56736 13.941 2.00115 14.1662C2.43494 14.3913 2.9104 14.5289 3.3994 14.5708C3.88839 14.6126 4.38098 14.5579 4.84801 14.4098C5.31504 14.2617 5.74702 14.0233 6.11839 13.7087ZM60.8783 21.6553C54.3795 27.1282 49.2392 31.4627 35.2999 23.735C16.8828 13.5372 8.25489 20.8015 1.32429 26.6356C0.567774 27.2817 0.0976561 28.1912 0.0135825 29.1713C-0.070491 30.1514 0.238088 31.1251 0.873915 31.8859C1.18352 32.2594 1.56641 32.5682 1.99994 32.794C2.43346 33.0198 2.9088 33.1581 3.39781 33.2006C3.88682 33.2432 4.37956 33.1891 4.84687 33.0416C5.31418 32.8941 5.74655 32.6562 6.11839 32.342C12.6209 26.8655 17.7575 22.5383 31.6968 30.255C38.393 33.9693 43.7938 35.363 48.2864 35.363C56.1587 35.363 61.2617 31.0723 65.6724 27.3544C66.4301 26.7099 66.9014 25.8012 66.9862 24.8214C67.071 23.8416 66.7626 22.8681 66.1265 22.1077C65.8166 21.734 65.4333 21.425 64.9993 21.1992C64.5653 20.9734 64.0895 20.8353 63.6001 20.7931C63.1106 20.7509 62.6175 20.8055 62.15 20.9536C61.6824 21.1017 61.25 21.3403 60.8783 21.6553ZM60.8783 40.285C54.3795 45.7651 49.2392 50.0924 35.2999 42.372C16.8828 32.1742 8.25489 39.4349 1.32429 45.2726C0.567774 45.9187 0.0976561 46.8282 0.0135825 47.8083C-0.070491 48.7884 0.238088 49.762 0.873915 50.5229C1.18375 50.8963 1.56693 51.2048 2.00073 51.4303C2.43454 51.6557 2.91012 51.7935 3.39926 51.8353C3.8884 51.8772 4.38113 51.8223 4.84822 51.674C5.31531 51.5256 5.74725 51.2868 6.11839 50.9717C12.6209 45.4988 17.7575 41.1752 31.6968 48.892C38.393 52.5989 43.7938 54 48.2864 54C56.1587 54 61.2617 49.702 65.6724 45.9914C66.4295 45.3458 66.9003 44.4365 66.9851 43.4564C67.0698 42.4763 66.7619 41.5024 66.1265 40.741C65.8163 40.3679 65.4329 40.0594 64.9991 39.8338C64.5653 39.6083 64.0898 39.4701 63.6006 39.4276C63.1114 39.3851 62.6185 39.4391 62.151 39.5863C61.6834 39.7336 61.2507 39.9711 60.8783 40.285Z" fill="#018DE0"/>
</svg>
