<svg width="23" height="23" viewBox="0 0 23 23" fill="none" xmlns="http://www.w3.org/2000/svg">
<path d="M20.3471 23H20.1968C2.82046 22.0004 0.353296 7.33346 0.0084227 2.85731C-0.0193659 2.50928 0.0217654 2.15919 0.12946 1.82709C0.237154 1.495 0.409295 1.18742 0.636019 0.921992C0.862743 0.656562 1.13959 0.438493 1.45071 0.280281C1.76182 0.122069 2.10109 0.0268231 2.44906 8.29407e-07H7.3215C7.67571 -0.000342192 8.02186 0.105721 8.31512 0.304452C8.60837 0.503182 8.83522 0.785424 8.96628 1.11462L10.3104 4.42308C10.4398 4.74468 10.4719 5.09722 10.4028 5.43693C10.3336 5.77663 10.1662 6.08852 9.92131 6.33385L8.03777 8.23577C8.33199 9.90835 9.13269 11.4502 10.3315 12.6526C11.5304 13.8551 13.0695 14.6601 14.7407 14.9588L16.6596 13.0569C16.9085 12.8147 17.2232 12.6511 17.5645 12.5866C17.9057 12.5221 18.2584 12.5595 18.5785 12.6942L21.9123 14.03C22.2364 14.1652 22.5129 14.3939 22.7066 14.687C22.9003 14.98 23.0024 15.3241 23 15.6754V20.3462C23 21.05 22.7205 21.725 22.2229 22.2227C21.7254 22.7204 21.0507 23 20.3471 23ZM2.66129 1.76923C2.42676 1.76923 2.20184 1.86243 2.036 2.02833C1.87017 2.19423 1.777 2.41923 1.777 2.65385V2.72462C2.18378 7.96154 4.79243 20.3462 20.294 21.2308C20.4102 21.238 20.5266 21.2221 20.6367 21.1842C20.7467 21.1462 20.8482 21.087 20.9353 21.0097C21.0224 20.9324 21.0934 20.8387 21.1442 20.734C21.195 20.6292 21.2246 20.5155 21.2314 20.3992V15.6754L17.8976 14.3396L15.3597 16.8608L14.9352 16.8077C7.24191 15.8435 6.19845 8.14731 6.19845 8.06769L6.14539 7.64308L8.65678 5.10423L7.33034 1.76923H2.66129Z" fill="#018DE0"/>
</svg>
