<svg width="28" height="28" viewBox="0 0 28 28" fill="none" xmlns="http://www.w3.org/2000/svg">
<path fill-rule="evenodd" clip-rule="evenodd" d="M25.8719 14.3319L27.7933 16.8935C27.8875 17.0191 27.9518 17.1644 27.9814 17.3185C28.011 17.4726 28.0051 17.6314 27.9642 17.7829C27.6409 18.9779 27.1649 20.1263 26.5478 21.1995C26.4696 21.3354 26.3615 21.4518 26.2316 21.5398C26.1017 21.6277 25.9535 21.685 25.7982 21.7071L22.625 22.1604C22.4722 22.319 22.3172 22.4754 22.1599 22.6295L21.7074 25.7993C21.6852 25.9547 21.6279 26.103 21.5398 26.233C21.4517 26.3629 21.3352 26.4711 21.1991 26.5493C20.1256 27.1656 18.977 27.6409 17.7819 27.9634C17.6305 28.0043 17.4717 28.0101 17.3176 27.9805C17.1635 27.9509 17.0183 27.8866 16.8928 27.7924L14.3383 25.8764C14.113 25.8829 13.8872 25.8829 13.662 25.8764L11.1064 27.7933C10.9809 27.8875 10.8355 27.9518 10.6814 27.9814C10.5273 28.011 10.3684 28.0051 10.2169 27.9642C9.02198 27.6409 7.87375 27.1649 6.80064 26.5478C6.66461 26.4697 6.54817 26.3615 6.46017 26.2316C6.37216 26.1017 6.31489 25.9535 6.29271 25.7982L5.84123 22.6372C5.67721 22.4822 5.51781 22.3227 5.36301 22.1589L2.20065 21.7073C2.04525 21.6851 1.89695 21.6278 1.76701 21.5397C1.63706 21.4517 1.52889 21.3352 1.4507 21.1991C0.834364 20.1256 0.359067 18.977 0.0365751 17.7819C-0.0043034 17.6304 -0.0101524 17.4717 0.0194737 17.3176C0.0490999 17.1635 0.113422 17.0182 0.207561 16.8927L2.13091 14.3283C2.12755 14.1356 2.12523 13.8943 2.12807 13.6679L0.206657 11.1063C0.112484 10.9808 0.0481515 10.8354 0.0185464 10.6813C-0.0110586 10.5272 -0.00515797 10.3684 0.0357991 10.2169C0.359022 9.02187 0.835061 7.87356 1.45213 6.80036C1.53032 6.66437 1.63845 6.54797 1.76832 6.45999C1.89819 6.37201 2.04639 6.31475 2.20168 6.29257L5.36275 5.84134C5.51789 5.67724 5.67734 5.51779 5.8411 5.36299L6.29259 2.20063C6.31479 2.04522 6.3721 1.89692 6.46018 1.76698C6.54825 1.63704 6.66478 1.52887 6.8009 1.45068C7.87441 0.834333 9.02294 0.359034 10.2181 0.0365515C10.3695 -0.00429799 10.5283 -0.0101311 10.6824 0.0194941C10.8364 0.0491194 10.9817 0.113425 11.1072 0.207539L13.6617 2.12353C13.8871 2.11728 14.1126 2.11728 14.338 2.12353L16.8935 0.206635C17.0191 0.112476 17.1645 0.0481549 17.3186 0.0185507C17.4727 -0.0110534 17.6316 -0.00516249 17.7831 0.0357766C18.978 0.359021 20.1262 0.835059 21.1993 1.4521C21.3353 1.53028 21.4518 1.6384 21.5398 1.76828C21.6278 1.89815 21.6851 2.04636 21.7073 2.20166L22.1587 5.36273C22.3228 5.51779 22.4822 5.67724 22.637 5.84108L25.7993 6.2927C25.9547 6.31487 26.103 6.37216 26.233 6.46021C26.3629 6.54826 26.4711 6.66477 26.5493 6.80088C27.1656 7.87439 27.6409 9.02293 27.9634 10.218C28.0043 10.3695 28.0101 10.5283 27.9805 10.6824C27.9509 10.8364 27.8866 10.9817 27.7924 11.1072L25.8691 13.6715C25.8724 13.8642 25.8747 14.1056 25.8719 14.3319ZM14.1386 18.8502C16.8945 18.8502 19.1287 16.616 19.1287 13.8601C19.1287 11.1041 16.8945 8.87 14.1386 8.87C11.3826 8.87 9.14849 11.1041 9.14849 13.8601C9.14849 16.616 11.3826 18.8502 14.1386 18.8502Z" fill="url(#paint0_radial_177_2350)"/>
<defs>
<radialGradient id="paint0_radial_177_2350" cx="0" cy="0" r="1" gradientUnits="userSpaceOnUse" gradientTransform="translate(21.9691 8.44081) rotate(131.251) scale(28.0107 25.5345)">
<stop stop-color="#376DBE"/>
<stop offset="0.947917" stop-color="#71CEF1"/>
<stop offset="1" stop-color="#76D7F6" stop-opacity="0"/>
</radialGradient>
</defs>
</svg>
