<svg width="14" height="14" viewBox="0 0 14 14" fill="none" xmlns="http://www.w3.org/2000/svg">
<path d="M3.49976 7.00541C3.48382 8.47767 3.72955 9.29701 4.20399 9.77145C4.68001 10.2475 5.50939 10.5 6.99979 10.5C8.48999 10.5 9.31043 10.2475 9.78226 9.7726C10.2549 9.29691 10.4998 8.47563 10.4998 7C10.4998 5.52437 10.2549 4.70309 9.78226 4.2274C9.31043 3.75248 8.48999 3.5 6.99979 3.5C5.50977 3.5 4.69829 3.75243 4.23064 4.22623C3.75988 4.7032 3.51576 5.52639 3.49976 7.00541Z" stroke="#018DE0" stroke-linecap="round" stroke-linejoin="round"/>
<path d="M7.5 0.5C7.5 0.223858 7.27614 0 7 0C6.72386 0 6.5 0.223858 6.5 0.5H7.5ZM6.5 1.5C6.5 1.77614 6.72386 2 7 2C7.27614 2 7.5 1.77614 7.5 1.5H6.5ZM6.5 0.5V1.5H7.5V0.5H6.5Z" fill="#018DE0"/>
<path d="M7.5 12.5C7.5 12.2239 7.27614 12 7 12C6.72386 12 6.5 12.2239 6.5 12.5H7.5ZM6.5 13.5C6.5 13.7761 6.72386 14 7 14C7.27614 14 7.5 13.7761 7.5 13.5H6.5ZM6.5 12.5V13.5H7.5V12.5H6.5Z" fill="#018DE0"/>
<path d="M13.5 7.5C13.7761 7.5 14 7.27614 14 7C14 6.72386 13.7761 6.5 13.5 6.5L13.5 7.5ZM12.5 6.5C12.2239 6.5 12 6.72386 12 7C12 7.27614 12.2239 7.5 12.5 7.5L12.5 6.5ZM13.5 6.5L12.5 6.5L12.5 7.5L13.5 7.5L13.5 6.5Z" fill="#018DE0"/>
<path d="M1.5 7.5C1.77614 7.5 2 7.27614 2 7C2 6.72386 1.77614 6.5 1.5 6.5L1.5 7.5ZM0.5 6.5C0.223858 6.5 2.83021e-09 6.72386 0 7C-2.83021e-09 7.27614 0.223858 7.5 0.5 7.5L0.5 6.5ZM1.5 6.5L0.5 6.5L0.5 7.5L1.5 7.5L1.5 6.5Z" fill="#018DE0"/>
<path d="M2.35355 1.64645C2.15829 1.45118 1.84171 1.45118 1.64645 1.64645C1.45118 1.84171 1.45118 2.15829 1.64645 2.35355L2.35355 1.64645ZM2.35355 3.06066C2.54882 3.25592 2.8654 3.25592 3.06066 3.06066C3.25592 2.8654 3.25592 2.54882 3.06066 2.35355L2.35355 3.06066ZM1.64645 2.35355L2.35355 3.06066L3.06066 2.35355L2.35355 1.64645L1.64645 2.35355Z" fill="#018DE0"/>
<path d="M2.35355 12.5606C2.15829 12.7558 1.84171 12.7558 1.64645 12.5606C1.45118 12.3653 1.45118 12.0487 1.64645 11.8535L2.35355 12.5606ZM2.35355 11.1464C2.54882 10.9511 2.8654 10.9511 3.06066 11.1464C3.25592 11.3416 3.25592 11.6582 3.06066 11.8535L2.35355 11.1464ZM1.64645 11.8535L2.35355 11.1464L3.06066 11.8535L2.35355 12.5606L1.64645 11.8535Z" fill="#018DE0"/>
<path d="M11.8535 1.64645C12.0487 1.45119 12.3653 1.45119 12.5606 1.64645C12.7558 1.84171 12.7558 2.15829 12.5606 2.35355L11.8535 1.64645ZM11.8535 3.06066C11.6582 3.25592 11.3416 3.25592 11.1464 3.06066C10.9511 2.8654 10.9511 2.54882 11.1464 2.35355L11.8535 3.06066ZM12.5606 2.35355L11.8535 3.06066L11.1464 2.35355L11.8535 1.64645L12.5606 2.35355Z" fill="#018DE0"/>
<path d="M11.8535 12.5606C12.0487 12.7558 12.3653 12.7558 12.5606 12.5606C12.7558 12.3653 12.7558 12.0487 12.5606 11.8535L11.8535 12.5606ZM11.8535 11.1464C11.6582 10.9511 11.3416 10.9511 11.1464 11.1464C10.9511 11.3416 10.9511 11.6582 11.1464 11.8535L11.8535 11.1464ZM12.5606 11.8535L11.8535 11.1464L11.1464 11.8535L11.8535 12.5606L12.5606 11.8535Z" fill="#018DE0"/>
</svg>
